<svg width="62.00000000000001" height="62.00000000000001" xmlns="http://www.w3.org/2000/svg">
 <title>Logo</title>

 <g>
  <title>background</title>
  <rect fill="none" id="canvas_background" height="64" width="64" y="-1" x="-1"/>
 </g>
 <g>
  <title>Layer 1</title>
  <path stroke="#ffffff" id="svg_2" d="m20.853861,39.050431c-0.007544,-9.067644 -0.015085,-18.135291 -0.022629,-27.202934c6.810869,0.104219 13.650624,-0.246892 20.43843,0.267618c3.31004,1.175197 2.833017,8.490938 2.779264,13.955229c-0.145202,4.120746 1.933948,12.289633 -3.466323,13.517487c-2.692324,0.000145 -2.702919,1.150456 -2.428111,3.2313c0.318912,3.117367 -0.606917,10.100663 -5.029772,5.674394l-12.27086,-9.443093l0.000001,-0.000001zm20.844543,-2.964211c0.010944,-8.150652 -0.080345,-15.104331 -0.532198,-20.474446c-4.014695,-1.826635 -9.439663,-0.937689 -13.982066,-0.965447c-1.785608,0.868715 4.235756,3.753268 5.512829,4.872524c4.848232,2.406575 6.294735,6.783165 5.457536,11.729359c0,1.924048 0,3.8481 0,5.772148c0.894058,-0.001082 2.743726,-0.44418 3.5439,-0.934143l-0.000001,0.000005z" stroke-width="1.5" fill="#ffffff"/>
 </g>
</svg>