<svg width="207.99999999999997" height="62" xmlns="http://www.w3.org/2000/svg">
 <title>Logo</title>

 <g>
  <title>background</title>
  <rect x="-1" y="-1" width="210" height="64" id="canvas_background" fill="none"/>
 </g>
 <g>
  <title>Layer 1</title>
  <g id="Symbols" fill="none" fill-rule="evenodd">
   <g id="Logo-/-Logo-for-Header-Copy">
    <text fill="#ffffff" stroke-width="0" x="51" y="38.497006" id="svg_3" font-size="23" font-family="Arvo, sans-serif" text-anchor="start" xml:space="preserve" font-weight="bold">Examinator</text>
    <path id="svg_1" fill-opacity="null" stroke-opacity="null" stroke-width="0" stroke="null" fill="#ffffff"/>
    <path id="svg_4" d="m-35.62716,33.37417c-0.390744,0 -0.7075,0.237543 -0.7075,0.530606c0,0.100129 0.037447,0.193704 0.101879,0.273592l-0.101879,0.223393l0.283656,-0.072794c0.118202,0.066508 0.264657,0.106452 0.423844,0.106452c0.390745,0 0.7075,-0.237581 0.7075,-0.530644s-0.316755,-0.530606 -0.7075,-0.530606zm0.049631,0.830647l-0.099513,0l0,-0.095463l0.099513,0l0,0.095463zm0,-0.197406l0,0.031577l-0.099513,0l0,-0.038864c0,-0.117287 0.133471,-0.13587 0.133471,-0.219151c0,-0.038017 -0.033959,-0.067165 -0.078481,-0.067165c-0.046094,0 -0.086568,0.033968 -0.086568,0.033968l-0.05661,-0.070403c0,0 0.0558,-0.058258 0.152065,-0.058258c0.091473,0 0.176373,0.056638 0.176373,0.152064c0.000048,0.133558 -0.140739,0.148903 -0.140739,0.236232l0,0z" fill-opacity="null" stroke-opacity="null" stroke-width="0" stroke="null" fill="#ffffff"/>
   </g>
  </g>
  <path id="svg_7" d="m21.460558,45.697512c-0.976012,-1.139371 1.528762,-1.169868 1.135251,-2.432883c0.719474,-1.673662 2.590183,-2.686723 2.865674,-4.588585c-0.75872,-0.528582 -1.195086,-1.806936 0.252425,-1.655169c1.061516,-0.799029 0.928849,-2.434145 1.248081,-3.634083c0.299045,-1.936727 0.366766,-3.896966 0.495213,-5.849605c-1.228239,-0.094342 -2.486861,-0.028627 -3.683626,-0.343349c0.034424,-1.298586 2.469561,-0.800316 2.580393,-2.025684c1.770573,-0.031996 0.098071,-2.676551 -0.622972,-3.307498c-0.922928,-1.06437 -1.537646,-2.74459 -0.836024,-4.05907c1.003547,-0.666776 3.27265,-0.260904 3.170087,-2.013181c-0.682496,-0.389037 -1.549028,-0.141983 -2.313975,-0.210784c0.047043,-0.817088 0.094084,-1.634174 0.141127,-2.451262c1.011631,-0.077814 2.023265,-0.155633 3.034896,-0.233454c-0.51349,-0.533677 -1.281986,-0.926433 -1.474292,-1.681346c0.654112,-1.07527 2.230569,-0.980351 3.359924,-0.970184c1.098171,-0.075747 3.100413,0.656759 1.603538,1.836623c-0.121323,0.289744 -1.302074,1.010175 -0.572387,0.931634c0.934278,0 1.868553,0 2.802829,0c-0.002685,0.798777 -0.024158,1.605492 0.163434,2.387191c-0.713163,0.531113 -3.02576,-0.453677 -2.36729,1.185065c0.741433,0.685143 1.876965,0.667062 2.817371,0.968801c0.548523,0.054801 0.984874,0.197738 0.787206,0.83891c0.1031,1.190437 -0.197248,2.387948 -1.015518,3.291611c-0.579237,0.942948 -1.880196,2.12341 -1.495069,3.214882c0.728644,-0.118608 1.313968,0.35982 0.731986,0.897851c0.597249,0.442213 2.700389,0.340945 2.245508,1.448042c-1.065557,0.352723 -2.210235,0.205774 -3.315737,0.241767c0.294353,3.021986 0.701348,6.044258 1.381411,9.003565c0.397352,0.656666 1.975785,1.16136 0.680384,2.017441c-0.483443,1.594243 1.0607,2.787951 2.030487,3.811175c1.066272,0.798591 0.548939,2.405425 2.057401,2.661696c1.18798,1.150793 -1.631011,1.120155 -2.354755,1.122665c-4.79127,0.051663 -9.587708,0.123942 -14.377103,-0.030451c-0.392069,-0.049481 -0.876459,-0.038162 -1.155876,-0.372332l-0.000001,0.000001z" fill-opacity="null" stroke-opacity="null" stroke-width="0" stroke="null" fill="#ffffff"/>
 </g>
</svg>